<svg xmlns="http://www.w3.org/2000/svg" width="117.201" height="43" viewBox="0 0 117.201 43">
  <g id="Group" transform="translate(0)">
    <path id="Fill_1481" data-name="Fill 1481" d="M48.5,28.7H26.175V9.568H22.986V28.7H.661v-3.19H19.8V6.378h9.568V25.514h3.189V14.351h3.19V25.514h3.19V14.351h3.19V25.514h3.189V0h9.568V28.7H51.69V3.19H48.5V28.7ZM16.607,22.325H.661V14.351H3.849v4.784h9.568v-3.19H7.039V6.378h9.568V22.324ZM10.229,9.568v3.19h3.189V9.568H10.229ZM2.255,11.9h0L0,9.646l2.1-2.1L0,5.444,2.255,3.19,4.51,5.444l-2.1,2.1,2.1,2.1L2.255,11.9Zm33-.5h0L33,9.143l2.255-2.255,2.082,2.081,2.081-2.081,2.255,2.255L39.419,11.4,37.337,9.317,35.256,11.4Zm2.082-3.7h0L35.082,5.444,37.337,3.19l2.255,2.254L37.338,7.7Z" transform="translate(0 2.218)" fill="#2a2a29"/>
    <path id="Fill_1482" data-name="Fill 1482" d="M.73,0H.118A.1.1,0,0,0,0,.118V.825A.1.1,0,0,0,.118.942H.73A.1.1,0,0,0,.848.825V.118A.1.1,0,0,0,.73,0" transform="translate(25.624 42.058)" fill="#761d33"/>
    <path id="Fill_1483" data-name="Fill 1483" d="M.731,0H.118A.1.1,0,0,0,0,.118V.825A.1.1,0,0,0,.118.942H.731A.1.1,0,0,0,.848.825V.118A.1.1,0,0,0,.731,0" transform="translate(27.132 42.058)" fill="#761d33"/>
    <path id="Fill_1484" data-name="Fill 1484" d="M.73,0H.118A.1.1,0,0,0,0,.118V.825A.1.1,0,0,0,.118.942H.73A.1.1,0,0,0,.848.825V.118A.1.1,0,0,0,.73,0" transform="translate(35.309 42.058)" fill="#761d33"/>
    <path id="Fill_1485" data-name="Fill 1485" d="M.73,0H.118A.1.1,0,0,0,0,.118V.825A.1.1,0,0,0,.118.942H.73A.1.1,0,0,0,.848.825V.118A.1.1,0,0,0,.73,0" transform="translate(36.817 42.058)" fill="#761d33"/>
    <path id="Fill_1486" data-name="Fill 1486" d="M8.668,8.094a2.788,2.788,0,0,1-.947-.153,1.43,1.43,0,0,1-.689-.507.953.953,0,0,1-.5.483,1.958,1.958,0,0,1-.615.094H5.222A2.878,2.878,0,0,1,4.371,7.9a.83.83,0,0,1-.518-.513,1.24,1.24,0,0,1-.377.454,1.16,1.16,0,0,1-.684.171H1.378a1.527,1.527,0,0,1-1.06-.3A1.313,1.313,0,0,1,0,6.728V.118A.1.1,0,0,1,.118,0H.53A.1.1,0,0,1,.648.118v6.61A.634.634,0,0,0,.8,7.216a.663.663,0,0,0,.448.136H2.722a.868.868,0,0,0,.354-.059.371.371,0,0,0,.188-.183A.92.92,0,0,0,3.34,6.8c.012-.129.018-.276.018-.437V3.381a.1.1,0,0,1,.118-.118h.412a.1.1,0,0,1,.118.118V6.468a.762.762,0,0,0,.312.666,1.433,1.433,0,0,0,.831.218H5.87A.754.754,0,0,0,6.128,7.3a.56.56,0,0,0,.236-.17,1.013,1.013,0,0,0,.177-.324,1.565,1.565,0,0,0,.07-.507C6.6,6.194,6.6,6.1,6.594,6s-.006-.206-.006-.324c0-1.744.7-2.628,2.08-2.628a1.939,1.939,0,0,1,1.559.625,2.869,2.869,0,0,1,.532,1.885c0,.1,0,.235-.005.394a2.961,2.961,0,0,1-.032.372,1.855,1.855,0,0,0,.059.506.843.843,0,0,0,.163.319.527.527,0,0,0,.257.159,1.321,1.321,0,0,0,.34.041h1.078a.594.594,0,0,0,.43-.136.69.69,0,0,0,.135-.489V3.381a.1.1,0,0,1,.118-.118h.424a.146.146,0,0,1,.059.012h.766v.66h-.707V6.527a1.681,1.681,0,0,1-.318,1.126,1.364,1.364,0,0,1-1.061.359h-.881a2.25,2.25,0,0,1-.758-.123,1.012,1.012,0,0,1-.546-.466,1.483,1.483,0,0,1-.683.518A2.659,2.659,0,0,1,8.668,8.094Zm0-4.382a1.191,1.191,0,0,0-1.069.5A2.514,2.514,0,0,0,7.269,5.6,2.386,2.386,0,0,0,7.6,6.98a1.239,1.239,0,0,0,1.069.454A1.253,1.253,0,0,0,9.74,6.98,2.339,2.339,0,0,0,10.074,5.6,2.5,2.5,0,0,0,9.74,4.217,1.2,1.2,0,0,0,8.666,3.712Z" transform="translate(23.303 33.056)" fill="#761d33"/>
    <path id="Fill_1487" data-name="Fill 1487" d="M3.723.477a1.634,1.634,0,0,0-.63-.359A2.7,2.7,0,0,0,2.274,0H.7A.1.1,0,0,0,.578.118V.542A.1.1,0,0,0,.7.66H2.074A1.643,1.643,0,0,1,3.2.984a1.27,1.27,0,0,1,.354.984V3.111a3.879,3.879,0,0,1-.036.571.737.737,0,0,1-.148.365.622.622,0,0,1-.33.194,2.25,2.25,0,0,1-.571.059H.118A.1.1,0,0,0,0,4.419v.424a.1.1,0,0,0,.118.118h2.5A2.764,2.764,0,0,0,3.4,4.866a1.039,1.039,0,0,0,.507-.324,1.387,1.387,0,0,0,.277-.618,4.818,4.818,0,0,0,.083-.978V2A2.59,2.59,0,0,0,4.124,1.1a1.589,1.589,0,0,0-.4-.619" transform="translate(38.996 36.107)" fill="#761d33"/>
    <path id="Fill_1488" data-name="Fill 1488" d="M6.41,3.741a1.633,1.633,0,0,0-.63-.359,2.7,2.7,0,0,0-.819-.118H3.606L5.867.589C5.915.534,5.9.479,5.821.424L5.479.153Q5.408.094,5.326.188L2.71,3.263c-.024,0-.035.036-.035.106v.436a.1.1,0,0,0,.118.118H4.76a1.644,1.644,0,0,1,1.131.324,1.271,1.271,0,0,1,.354.984v.931a3.835,3.835,0,0,1-.036.571.737.737,0,0,1-.147.365.626.626,0,0,1-.33.194,2.252,2.252,0,0,1-.571.059H1.249A.658.658,0,0,1,.8,7.216a.634.634,0,0,1-.153-.489V.118A.1.1,0,0,0,.53,0H.118A.1.1,0,0,0,0,.118v6.61a1.3,1.3,0,0,0,.318.984,1.521,1.521,0,0,0,1.06.3H5.3a2.759,2.759,0,0,0,.784-.095,1.039,1.039,0,0,0,.507-.324,1.393,1.393,0,0,0,.277-.619A4.818,4.818,0,0,0,6.952,6v-.73a2.591,2.591,0,0,0-.142-.907,1.593,1.593,0,0,0-.4-.619" transform="translate(44.829 33.056)" fill="#761d33"/>
    <path id="Fill_1489" data-name="Fill 1489" d="M2.345,1.885H1.107a1.078,1.078,0,0,1-.241-.3.821.821,0,0,1-.112-.418A.8.8,0,0,1,.925.648.579.579,0,0,1,1.4.436a.879.879,0,0,1,.359.071.772.772,0,0,1,.265.188c.047.047.09.051.13.012L2.333.553a.1.1,0,0,0,.024-.13A.85.85,0,0,0,1.973.112,1.289,1.289,0,0,0,1.449,0,1.2,1.2,0,0,0,.883.118,1.042,1.042,0,0,0,.53.406,1.075,1.075,0,0,0,.347.766a1.288,1.288,0,0,0-.053.342,1.31,1.31,0,0,0,.065.448,1.831,1.831,0,0,0,.159.33H.071c-.047,0-.071.028-.071.083V2.25c0,.055.024.083.071.083H2.345c.047,0,.071-.027.071-.083V1.967c0-.055-.024-.083-.071-.083" transform="translate(52.464 33.056)" fill="#761d33"/>
    <path id="Fill_1490" data-name="Fill 1490" d="M.53,0H.118A.1.1,0,0,0,0,.118V4.972a.1.1,0,0,0,.118.118H.53a.1.1,0,0,0,.118-.118V.118A.1.1,0,0,0,.53,0" transform="translate(53.347 35.978)" fill="#761d33"/>
    <path id="Fill_1491" data-name="Fill 1491" d="M0,41.816H.684V0H0Z" transform="translate(59.011)" fill="#717371"/>
    <path id="Fill_1492" data-name="Fill 1492" d="M1.29,7.7H0L3.058,0H4.121L7.157,7.7H5.878L5.064,5.607H2.093L1.291,7.7Zm2.3-6.3h0L2.31,4.707H4.826L3.589,1.4Z" transform="translate(64.3 13.008)" fill="#2a2a29"/>
    <path id="Fill_1493" data-name="Fill 1493" d="M0,7.7V0H1.215V6.626H5.346V7.7Z" transform="translate(72.412 13.008)" fill="#2a2a29"/>
    <path id="Fill_1494" data-name="Fill 1494" d="M5.141,1.865a1.68,1.68,0,0,0-.315-.255,3.187,3.187,0,0,0-.483-.255,3.519,3.519,0,0,0-.607-.2,3.033,3.033,0,0,0-.678-.076,1.847,1.847,0,0,0-1.133.282.933.933,0,0,0-.363.781.845.845,0,0,0,.114.461.972.972,0,0,0,.352.314,2.724,2.724,0,0,0,.6.239q.357.1.835.222A9.548,9.548,0,0,1,4.517,3.7a3.025,3.025,0,0,1,.8.423,1.728,1.728,0,0,1,.5.613A1.984,1.984,0,0,1,6,5.618a2.145,2.145,0,0,1-.222,1.009,1.9,1.9,0,0,1-.607.689,2.665,2.665,0,0,1-.895.39,4.594,4.594,0,0,1-1.1.125,5.456,5.456,0,0,1-1.7-.266A4.855,4.855,0,0,1,0,6.789L.553,5.748a2.584,2.584,0,0,0,.407.315,3.781,3.781,0,0,0,.618.32,5.4,5.4,0,0,0,.765.249,3.5,3.5,0,0,0,.857.1,2.056,2.056,0,0,0,1.106-.249.819.819,0,0,0,.39-.738A.79.79,0,0,0,4.55,5.26a1.253,1.253,0,0,0-.418-.342,3.652,3.652,0,0,0-.662-.266Q3.08,4.533,2.581,4.4a9.139,9.139,0,0,1-1-.32,2.5,2.5,0,0,1-.71-.407,1.6,1.6,0,0,1-.428-.558,1.854,1.854,0,0,1-.147-.776,2.237,2.237,0,0,1,.217-1A2.15,2.15,0,0,1,1.1.6a2.592,2.592,0,0,1,.884-.45A3.861,3.861,0,0,1,3.091,0,4.061,4.061,0,0,1,4.533.249,4.784,4.784,0,0,1,5.694.868Z" transform="translate(80.546 12.954)" fill="#2a2a29"/>
    <path id="Fill_1495" data-name="Fill 1495" d="M6.323,0V7.7H5.1V4.305H1.215V7.7H0V0H1.215V3.221H5.1V0Z" transform="translate(87.758 13.008)" fill="#2a2a29"/>
    <path id="Fill_1496" data-name="Fill 1496" d="M1.29,7.7H0L3.058,0H4.121L7.157,7.7H5.878L5.064,5.607H2.093L1.291,7.7Zm2.3-6.3h0L2.31,4.707H4.826L3.589,1.4Z" transform="translate(95.024 13.008)" fill="#2a2a29"/>
    <path id="Fill_1497" data-name="Fill 1497" d="M1.215,7.7H0V0H3.351a2.143,2.143,0,0,1,.96.217,2.488,2.488,0,0,1,.753.569,2.724,2.724,0,0,1,.494.8,2.485,2.485,0,0,1,.178.916,2.589,2.589,0,0,1-.108.749,2.649,2.649,0,0,1-.3.661,2.116,2.116,0,0,1-.477.526,1.966,1.966,0,0,1-.618.331L6.04,7.7l-1.377,0L2.993,5.021H1.215V7.7Zm0-6.627V3.947H3.34a.983.983,0,0,0,.472-.113,1.129,1.129,0,0,0,.365-.315,1.589,1.589,0,0,0,.238-.461A1.731,1.731,0,0,0,4.5,2.5a1.5,1.5,0,0,0-.1-.553A1.566,1.566,0,0,0,4.127,1.5a1.288,1.288,0,0,0-.391-.31,1.008,1.008,0,0,0-.461-.113Z" transform="translate(103.136 13.008)" fill="#2a2a29"/>
    <path id="Fill_1498" data-name="Fill 1498" d="M3.687,7.808a3.349,3.349,0,0,1-1.5-.337A3.862,3.862,0,0,1,1.02,6.593,3.909,3.909,0,0,1,.266,5.347,4.081,4.081,0,0,1,0,3.9,3.95,3.95,0,0,1,.282,2.429a4.116,4.116,0,0,1,.776-1.247A3.738,3.738,0,0,1,2.228.32,3.451,3.451,0,0,1,3.709,0a3.3,3.3,0,0,1,1.5.342,3.787,3.787,0,0,1,1.16.895,4.085,4.085,0,0,1,.748,1.253A3.993,3.993,0,0,1,6.355,6.6l1.009,1.15H6.192l-.5-.564a3.727,3.727,0,0,1-.938.455A3.466,3.466,0,0,1,3.687,7.808ZM3.7,1.1a2.186,2.186,0,0,0-1.041.244,2.468,2.468,0,0,0-.769.64,2.9,2.9,0,0,0-.482.9A3.229,3.229,0,0,0,1.237,3.9a3.274,3.274,0,0,0,.173,1.052,2.876,2.876,0,0,0,.494.9,2.419,2.419,0,0,0,.775.624,2.215,2.215,0,0,0,1.02.233,2.247,2.247,0,0,0,.672-.1,2.2,2.2,0,0,0,.575-.271l-1.1-1.269H5.021l.553.64A2.719,2.719,0,0,0,6,4.864,3.328,3.328,0,0,0,6.138,3.9a3.235,3.235,0,0,0-.174-1.057,2.868,2.868,0,0,0-.493-.895,2.45,2.45,0,0,0-.77-.624A2.159,2.159,0,0,0,3.7,1.1Z" transform="translate(109.816 12.954)" fill="#2a2a29"/>
    <path id="Fill_1499" data-name="Fill 1499" d="M.623,5.906H0L2.471,0h.491L5.413,5.9H4.8L4.034,4.058H1.381L.624,5.9ZM2.711.682,1.5,3.6H3.9Z" transform="translate(64.324 23.846)" fill="#761d33"/>
    <path id="Fill_1500" data-name="Fill 1500" d="M0,2.944a3.146,3.146,0,0,1,.187-1.06A2.938,2.938,0,0,1,.732.94,2.805,2.805,0,0,1,1.613.262,2.629,2.629,0,0,1,2.8,0,2.464,2.464,0,0,1,4.154.358a2.179,2.179,0,0,1,.828.931l-.457.283a1.763,1.763,0,0,0-.345-.491A1.914,1.914,0,0,0,3.742.757,1.844,1.844,0,0,0,3.26.578,2.324,2.324,0,0,0,2.769.524,1.975,1.975,0,0,0,1.83.74a2.156,2.156,0,0,0-.686.565,2.462,2.462,0,0,0-.42.786,2.859,2.859,0,0,0-.141.886,2.615,2.615,0,0,0,.171.94,2.655,2.655,0,0,0,.466.794,2.242,2.242,0,0,0,.7.549,1.919,1.919,0,0,0,.877.2A2.2,2.2,0,0,0,3.305,5.4a1.978,1.978,0,0,0,.508-.2,2.121,2.121,0,0,0,.453-.341,1.77,1.77,0,0,0,.35-.495l.482.249a1.809,1.809,0,0,1-.4.586,2.622,2.622,0,0,1-.574.428,2.838,2.838,0,0,1-.669.266,2.759,2.759,0,0,1-.694.091,2.366,2.366,0,0,1-1.114-.266,2.929,2.929,0,0,1-.873-.695A3.227,3.227,0,0,1,.2,4.054,3.142,3.142,0,0,1,0,2.944" transform="translate(69.979 23.812)" fill="#761d33"/>
    <path id="Fill_1501" data-name="Fill 1501" d="M.623,5.906H0L2.471,0h.491L5.413,5.9H4.8L4.034,4.058H1.381L.624,5.9ZM2.711.682,1.5,3.6H3.9Z" transform="translate(75.351 23.846)" fill="#761d33"/>
    <path id="Fill_1502" data-name="Fill 1502" d="M2,5.9H0V0H2A3.058,3.058,0,0,1,3.239.233,2.525,2.525,0,0,1,4.12.865a2.667,2.667,0,0,1,.532.936,3.592,3.592,0,0,1,.179,1.143,3.56,3.56,0,0,1-.2,1.219,2.678,2.678,0,0,1-.571.931,2.558,2.558,0,0,1-.889.6A3.083,3.083,0,0,1,2,5.9ZM.581.516V5.389H2A2.377,2.377,0,0,0,2.973,5.2a1.985,1.985,0,0,0,.7-.516A2.251,2.251,0,0,0,4.1,3.912a3.1,3.1,0,0,0,.145-.968A3.064,3.064,0,0,0,4.1,1.967,2.226,2.226,0,0,0,3.663,1.2a1.947,1.947,0,0,0-.7-.5A2.4,2.4,0,0,0,2,.516Z" transform="translate(81.614 23.846)" fill="#761d33"/>
    <path id="Fill_1503" data-name="Fill 1503" d="M3.967,5.389V5.9H0V0H3.892V.516H.582V2.645H3.468v.491H.582V5.389Z" transform="translate(87.56 23.846)" fill="#761d33"/>
    <path id="Fill_1504" data-name="Fill 1504" d="M5.231,5.9V1.056L3.077,4.807H2.736L.582,1.056V5.9H0V0H.6L2.9,4.042,5.223,0h.59V5.9Z" transform="translate(92.624 23.846)" fill="#761d33"/>
    <path id="Fill_1505" data-name="Fill 1505" d="M0,5.9H.582V0H0Z" transform="translate(99.917 23.846)" fill="#761d33"/>
    <path id="Fill_1506" data-name="Fill 1506" d="M.623,5.906H0L2.471,0h.491L5.413,5.9H4.8L4.034,4.058H1.381L.624,5.9ZM2.711.682,1.5,3.6H3.9Z" transform="translate(101.339 23.846)" fill="#761d33"/>
  </g>
</svg>
